<mxfile host="Electron" modified="2023-06-11T12:34:28.383Z" agent="Mozilla/5.0 (X11; Linux x86_64) AppleWebKit/537.36 (KHTML, like Gecko) draw.io/21.2.8 Chrome/112.0.5615.165 Electron/24.2.0 Safari/537.36" etag="1J7RMsdEVVUWHjy3SRH7" version="21.2.8" type="device">
  <diagram name="Page-1" id="Mg1h4eWMj3C3FWkhn4P5">
    <mxGraphModel dx="1342" dy="747" grid="1" gridSize="10" guides="1" tooltips="1" connect="1" arrows="1" fold="1" page="1" pageScale="1" pageWidth="1100" pageHeight="850" math="0" shadow="0">
      <root>
        <mxCell id="0" />
        <mxCell id="1" parent="0" />
        <mxCell id="ti19_e32oSws1piyhhR4-1" style="edgeStyle=orthogonalEdgeStyle;rounded=0;orthogonalLoop=1;jettySize=auto;html=1;entryX=0;entryY=0.5;entryDx=0;entryDy=0;" edge="1" parent="1" source="ti19_e32oSws1piyhhR4-2" target="ti19_e32oSws1piyhhR4-36">
          <mxGeometry relative="1" as="geometry" />
        </mxCell>
        <mxCell id="ti19_e32oSws1piyhhR4-2" value="" style="shape=table;html=1;whiteSpace=wrap;startSize=0;container=1;collapsible=0;childLayout=tableLayout;" vertex="1" parent="1">
          <mxGeometry x="230" y="720" width="180" height="40" as="geometry" />
        </mxCell>
        <mxCell id="ti19_e32oSws1piyhhR4-3" value="" style="shape=tableRow;horizontal=0;startSize=0;swimlaneHead=0;swimlaneBody=0;top=0;left=0;bottom=0;right=0;collapsible=0;dropTarget=0;fillColor=none;points=[[0,0.5],[1,0.5]];portConstraint=eastwest;" vertex="1" parent="ti19_e32oSws1piyhhR4-2">
          <mxGeometry width="180" height="40" as="geometry" />
        </mxCell>
        <mxCell id="ti19_e32oSws1piyhhR4-4" value="0.6" style="shape=partialRectangle;html=1;whiteSpace=wrap;connectable=0;fillColor=none;top=0;left=0;bottom=0;right=0;overflow=hidden;" vertex="1" parent="ti19_e32oSws1piyhhR4-3">
          <mxGeometry width="60" height="40" as="geometry">
            <mxRectangle width="60" height="40" as="alternateBounds" />
          </mxGeometry>
        </mxCell>
        <mxCell id="ti19_e32oSws1piyhhR4-5" value="0.1" style="shape=partialRectangle;html=1;whiteSpace=wrap;connectable=0;fillColor=none;top=0;left=0;bottom=0;right=0;overflow=hidden;" vertex="1" parent="ti19_e32oSws1piyhhR4-3">
          <mxGeometry x="60" width="60" height="40" as="geometry">
            <mxRectangle width="60" height="40" as="alternateBounds" />
          </mxGeometry>
        </mxCell>
        <mxCell id="ti19_e32oSws1piyhhR4-6" value="0.3" style="shape=partialRectangle;html=1;whiteSpace=wrap;connectable=0;fillColor=none;top=0;left=0;bottom=0;right=0;overflow=hidden;" vertex="1" parent="ti19_e32oSws1piyhhR4-3">
          <mxGeometry x="120" width="60" height="40" as="geometry">
            <mxRectangle width="60" height="40" as="alternateBounds" />
          </mxGeometry>
        </mxCell>
        <mxCell id="ti19_e32oSws1piyhhR4-7" style="edgeStyle=orthogonalEdgeStyle;rounded=0;orthogonalLoop=1;jettySize=auto;html=1;entryX=1;entryY=0.5;entryDx=0;entryDy=0;" edge="1" parent="1" source="ti19_e32oSws1piyhhR4-8" target="ti19_e32oSws1piyhhR4-39">
          <mxGeometry relative="1" as="geometry" />
        </mxCell>
        <mxCell id="ti19_e32oSws1piyhhR4-8" value="" style="shape=table;html=1;whiteSpace=wrap;startSize=0;container=1;collapsible=0;childLayout=tableLayout;" vertex="1" parent="1">
          <mxGeometry x="440" y="720" width="180" height="40" as="geometry" />
        </mxCell>
        <mxCell id="ti19_e32oSws1piyhhR4-9" value="" style="shape=tableRow;horizontal=0;startSize=0;swimlaneHead=0;swimlaneBody=0;top=0;left=0;bottom=0;right=0;collapsible=0;dropTarget=0;fillColor=none;points=[[0,0.5],[1,0.5]];portConstraint=eastwest;" vertex="1" parent="ti19_e32oSws1piyhhR4-8">
          <mxGeometry width="180" height="40" as="geometry" />
        </mxCell>
        <mxCell id="ti19_e32oSws1piyhhR4-10" value="0.3" style="shape=partialRectangle;html=1;whiteSpace=wrap;connectable=0;fillColor=none;top=0;left=0;bottom=0;right=0;overflow=hidden;" vertex="1" parent="ti19_e32oSws1piyhhR4-9">
          <mxGeometry width="60" height="40" as="geometry">
            <mxRectangle width="60" height="40" as="alternateBounds" />
          </mxGeometry>
        </mxCell>
        <mxCell id="ti19_e32oSws1piyhhR4-11" value="0.1" style="shape=partialRectangle;html=1;whiteSpace=wrap;connectable=0;fillColor=none;top=0;left=0;bottom=0;right=0;overflow=hidden;" vertex="1" parent="ti19_e32oSws1piyhhR4-9">
          <mxGeometry x="60" width="60" height="40" as="geometry">
            <mxRectangle width="60" height="40" as="alternateBounds" />
          </mxGeometry>
        </mxCell>
        <mxCell id="ti19_e32oSws1piyhhR4-12" value="0.6" style="shape=partialRectangle;html=1;whiteSpace=wrap;connectable=0;fillColor=none;top=0;left=0;bottom=0;right=0;overflow=hidden;" vertex="1" parent="ti19_e32oSws1piyhhR4-9">
          <mxGeometry x="120" width="60" height="40" as="geometry">
            <mxRectangle width="60" height="40" as="alternateBounds" />
          </mxGeometry>
        </mxCell>
        <mxCell id="ti19_e32oSws1piyhhR4-13" value="&lt;font style=&quot;font-size: 17px;&quot;&gt;parent A&lt;/font&gt;" style="text;html=1;align=center;verticalAlign=middle;resizable=0;points=[];autosize=1;strokeColor=none;fillColor=none;fontSize=13;fontFamily=Helvetica;fontColor=default;" vertex="1" parent="1">
          <mxGeometry x="290" y="690" width="90" height="30" as="geometry" />
        </mxCell>
        <mxCell id="ti19_e32oSws1piyhhR4-14" value="&lt;font style=&quot;font-size: 17px;&quot;&gt;parent B&lt;/font&gt;" style="text;html=1;align=center;verticalAlign=middle;resizable=0;points=[];autosize=1;strokeColor=none;fillColor=none;fontSize=13;fontFamily=Helvetica;fontColor=default;" vertex="1" parent="1">
          <mxGeometry x="485" y="690" width="90" height="30" as="geometry" />
        </mxCell>
        <mxCell id="ti19_e32oSws1piyhhR4-15" style="edgeStyle=none;shape=connector;rounded=0;orthogonalLoop=1;jettySize=auto;html=1;labelBackgroundColor=default;strokeColor=default;fontFamily=Helvetica;fontSize=18;fontColor=default;endArrow=classic;" edge="1" parent="1" source="ti19_e32oSws1piyhhR4-16" target="ti19_e32oSws1piyhhR4-19">
          <mxGeometry relative="1" as="geometry" />
        </mxCell>
        <mxCell id="ti19_e32oSws1piyhhR4-16" value="&lt;font style=&quot;font-size: 18px;&quot;&gt;+&lt;/font&gt;" style="ellipse;whiteSpace=wrap;html=1;aspect=fixed;" vertex="1" parent="1">
          <mxGeometry x="415" y="810" width="20" height="20" as="geometry" />
        </mxCell>
        <mxCell id="ti19_e32oSws1piyhhR4-17" value="&lt;font style=&quot;font-size: 11px;&quot;&gt;vector addition&lt;/font&gt;" style="text;html=1;align=center;verticalAlign=middle;resizable=0;points=[];autosize=1;strokeColor=none;fillColor=none;fontSize=18;fontFamily=Helvetica;fontColor=default;" vertex="1" parent="1">
          <mxGeometry x="375" y="780" width="100" height="40" as="geometry" />
        </mxCell>
        <mxCell id="ti19_e32oSws1piyhhR4-18" value="" style="shape=table;html=1;whiteSpace=wrap;startSize=0;container=1;collapsible=0;childLayout=tableLayout;" vertex="1" parent="1">
          <mxGeometry x="335" y="870" width="180" height="40" as="geometry" />
        </mxCell>
        <mxCell id="ti19_e32oSws1piyhhR4-19" value="" style="shape=tableRow;horizontal=0;startSize=0;swimlaneHead=0;swimlaneBody=0;top=0;left=0;bottom=0;right=0;collapsible=0;dropTarget=0;fillColor=none;points=[[0,0.5],[1,0.5]];portConstraint=eastwest;" vertex="1" parent="ti19_e32oSws1piyhhR4-18">
          <mxGeometry width="180" height="40" as="geometry" />
        </mxCell>
        <mxCell id="ti19_e32oSws1piyhhR4-20" value="0.9" style="shape=partialRectangle;html=1;whiteSpace=wrap;connectable=0;fillColor=none;top=0;left=0;bottom=0;right=0;overflow=hidden;" vertex="1" parent="ti19_e32oSws1piyhhR4-19">
          <mxGeometry width="60" height="40" as="geometry">
            <mxRectangle width="60" height="40" as="alternateBounds" />
          </mxGeometry>
        </mxCell>
        <mxCell id="ti19_e32oSws1piyhhR4-21" value="0.2" style="shape=partialRectangle;html=1;whiteSpace=wrap;connectable=0;fillColor=none;top=0;left=0;bottom=0;right=0;overflow=hidden;" vertex="1" parent="ti19_e32oSws1piyhhR4-19">
          <mxGeometry x="60" width="60" height="40" as="geometry">
            <mxRectangle width="60" height="40" as="alternateBounds" />
          </mxGeometry>
        </mxCell>
        <mxCell id="ti19_e32oSws1piyhhR4-22" value="0.9" style="shape=partialRectangle;html=1;whiteSpace=wrap;connectable=0;fillColor=none;top=0;left=0;bottom=0;right=0;overflow=hidden;" vertex="1" parent="ti19_e32oSws1piyhhR4-19">
          <mxGeometry x="120" width="60" height="40" as="geometry">
            <mxRectangle width="60" height="40" as="alternateBounds" />
          </mxGeometry>
        </mxCell>
        <mxCell id="ti19_e32oSws1piyhhR4-23" value="" style="shape=table;html=1;whiteSpace=wrap;startSize=0;container=1;collapsible=0;childLayout=tableLayout;" vertex="1" parent="1">
          <mxGeometry x="335" y="950" width="180" height="40" as="geometry" />
        </mxCell>
        <mxCell id="ti19_e32oSws1piyhhR4-24" value="" style="shape=tableRow;horizontal=0;startSize=0;swimlaneHead=0;swimlaneBody=0;top=0;left=0;bottom=0;right=0;collapsible=0;dropTarget=0;fillColor=none;points=[[0,0.5],[1,0.5]];portConstraint=eastwest;" vertex="1" parent="ti19_e32oSws1piyhhR4-23">
          <mxGeometry width="180" height="40" as="geometry" />
        </mxCell>
        <mxCell id="ti19_e32oSws1piyhhR4-25" value="0.45" style="shape=partialRectangle;html=1;whiteSpace=wrap;connectable=0;fillColor=none;top=0;left=0;bottom=0;right=0;overflow=hidden;" vertex="1" parent="ti19_e32oSws1piyhhR4-24">
          <mxGeometry width="60" height="40" as="geometry">
            <mxRectangle width="60" height="40" as="alternateBounds" />
          </mxGeometry>
        </mxCell>
        <mxCell id="ti19_e32oSws1piyhhR4-26" value="0.1" style="shape=partialRectangle;html=1;whiteSpace=wrap;connectable=0;fillColor=none;top=0;left=0;bottom=0;right=0;overflow=hidden;" vertex="1" parent="ti19_e32oSws1piyhhR4-24">
          <mxGeometry x="60" width="60" height="40" as="geometry">
            <mxRectangle width="60" height="40" as="alternateBounds" />
          </mxGeometry>
        </mxCell>
        <mxCell id="ti19_e32oSws1piyhhR4-27" value="0.45" style="shape=partialRectangle;html=1;whiteSpace=wrap;connectable=0;fillColor=none;top=0;left=0;bottom=0;right=0;overflow=hidden;" vertex="1" parent="ti19_e32oSws1piyhhR4-24">
          <mxGeometry x="120" width="60" height="40" as="geometry">
            <mxRectangle width="60" height="40" as="alternateBounds" />
          </mxGeometry>
        </mxCell>
        <mxCell id="ti19_e32oSws1piyhhR4-28" value="&lt;font style=&quot;font-size: 13px;&quot;&gt;normalize&lt;br&gt;to stochastic vector&lt;/font&gt;" style="text;html=1;align=center;verticalAlign=middle;resizable=0;points=[];autosize=1;strokeColor=none;fillColor=none;fontSize=8;fontFamily=Helvetica;fontColor=default;" vertex="1" parent="1">
          <mxGeometry x="530" y="910" width="130" height="40" as="geometry" />
        </mxCell>
        <mxCell id="ti19_e32oSws1piyhhR4-29" value="&lt;font style=&quot;font-size: 17px;&quot;&gt;child&lt;/font&gt;" style="text;html=1;align=center;verticalAlign=middle;resizable=0;points=[];autosize=1;strokeColor=none;fillColor=none;fontSize=13;fontFamily=Helvetica;fontColor=default;" vertex="1" parent="1">
          <mxGeometry x="400" y="920" width="60" height="30" as="geometry" />
        </mxCell>
        <mxCell id="ti19_e32oSws1piyhhR4-30" style="edgeStyle=orthogonalEdgeStyle;shape=connector;rounded=0;orthogonalLoop=1;jettySize=auto;html=1;entryX=1;entryY=0.5;entryDx=0;entryDy=0;labelBackgroundColor=default;strokeColor=default;fontFamily=Helvetica;fontSize=18;fontColor=default;endArrow=classic;" edge="1" parent="1" source="ti19_e32oSws1piyhhR4-19" target="ti19_e32oSws1piyhhR4-24">
          <mxGeometry relative="1" as="geometry">
            <Array as="points">
              <mxPoint x="530" y="890" />
              <mxPoint x="530" y="970" />
            </Array>
          </mxGeometry>
        </mxCell>
        <mxCell id="ti19_e32oSws1piyhhR4-31" value="" style="shape=table;html=1;whiteSpace=wrap;startSize=0;container=1;collapsible=0;childLayout=tableLayout;" vertex="1" parent="1">
          <mxGeometry x="230" y="793" width="60" height="40" as="geometry" />
        </mxCell>
        <mxCell id="ti19_e32oSws1piyhhR4-32" value="" style="shape=tableRow;horizontal=0;startSize=0;swimlaneHead=0;swimlaneBody=0;top=0;left=0;bottom=0;right=0;collapsible=0;dropTarget=0;fillColor=none;points=[[0,0.5],[1,0.5]];portConstraint=eastwest;" vertex="1" parent="ti19_e32oSws1piyhhR4-31">
          <mxGeometry width="60" height="40" as="geometry" />
        </mxCell>
        <mxCell id="ti19_e32oSws1piyhhR4-33" value="1" style="shape=partialRectangle;html=1;whiteSpace=wrap;connectable=0;fillColor=none;top=0;left=0;bottom=0;right=0;overflow=hidden;" vertex="1" parent="ti19_e32oSws1piyhhR4-32">
          <mxGeometry width="60" height="40" as="geometry">
            <mxRectangle width="60" height="40" as="alternateBounds" />
          </mxGeometry>
        </mxCell>
        <mxCell id="ti19_e32oSws1piyhhR4-34" value="weight A" style="text;html=1;strokeColor=none;fillColor=none;align=center;verticalAlign=middle;whiteSpace=wrap;rounded=0;" vertex="1" parent="1">
          <mxGeometry x="230" y="770" width="60" height="30" as="geometry" />
        </mxCell>
        <mxCell id="ti19_e32oSws1piyhhR4-35" style="rounded=0;orthogonalLoop=1;jettySize=auto;html=1;entryX=0;entryY=0.5;entryDx=0;entryDy=0;" edge="1" parent="1" source="ti19_e32oSws1piyhhR4-36" target="ti19_e32oSws1piyhhR4-16">
          <mxGeometry relative="1" as="geometry" />
        </mxCell>
        <mxCell id="ti19_e32oSws1piyhhR4-36" value="&lt;font style=&quot;font-size: 18px;&quot;&gt;x&lt;/font&gt;" style="ellipse;whiteSpace=wrap;html=1;aspect=fixed;" vertex="1" parent="1">
          <mxGeometry x="350" y="790" width="20" height="20" as="geometry" />
        </mxCell>
        <mxCell id="ti19_e32oSws1piyhhR4-37" style="edgeStyle=orthogonalEdgeStyle;rounded=0;orthogonalLoop=1;jettySize=auto;html=1;entryX=0;entryY=0.5;entryDx=0;entryDy=0;" edge="1" parent="1" source="ti19_e32oSws1piyhhR4-32" target="ti19_e32oSws1piyhhR4-36">
          <mxGeometry relative="1" as="geometry" />
        </mxCell>
        <mxCell id="ti19_e32oSws1piyhhR4-38" style="rounded=0;orthogonalLoop=1;jettySize=auto;html=1;entryX=1;entryY=0.5;entryDx=0;entryDy=0;" edge="1" parent="1" source="ti19_e32oSws1piyhhR4-39" target="ti19_e32oSws1piyhhR4-16">
          <mxGeometry relative="1" as="geometry" />
        </mxCell>
        <mxCell id="ti19_e32oSws1piyhhR4-39" value="&lt;font style=&quot;font-size: 18px;&quot;&gt;x&lt;/font&gt;" style="ellipse;whiteSpace=wrap;html=1;aspect=fixed;" vertex="1" parent="1">
          <mxGeometry x="485" y="790" width="20" height="20" as="geometry" />
        </mxCell>
        <mxCell id="ti19_e32oSws1piyhhR4-40" value="" style="shape=table;html=1;whiteSpace=wrap;startSize=0;container=1;collapsible=0;childLayout=tableLayout;" vertex="1" parent="1">
          <mxGeometry x="560" y="793" width="60" height="40" as="geometry" />
        </mxCell>
        <mxCell id="ti19_e32oSws1piyhhR4-41" value="" style="shape=tableRow;horizontal=0;startSize=0;swimlaneHead=0;swimlaneBody=0;top=0;left=0;bottom=0;right=0;collapsible=0;dropTarget=0;fillColor=none;points=[[0,0.5],[1,0.5]];portConstraint=eastwest;" vertex="1" parent="ti19_e32oSws1piyhhR4-40">
          <mxGeometry width="60" height="40" as="geometry" />
        </mxCell>
        <mxCell id="ti19_e32oSws1piyhhR4-42" value="1" style="shape=partialRectangle;html=1;whiteSpace=wrap;connectable=0;fillColor=none;top=0;left=0;bottom=0;right=0;overflow=hidden;" vertex="1" parent="ti19_e32oSws1piyhhR4-41">
          <mxGeometry width="60" height="40" as="geometry">
            <mxRectangle width="60" height="40" as="alternateBounds" />
          </mxGeometry>
        </mxCell>
        <mxCell id="ti19_e32oSws1piyhhR4-43" value="weight B" style="text;html=1;strokeColor=none;fillColor=none;align=center;verticalAlign=middle;whiteSpace=wrap;rounded=0;" vertex="1" parent="1">
          <mxGeometry x="560" y="770" width="60" height="30" as="geometry" />
        </mxCell>
        <mxCell id="ti19_e32oSws1piyhhR4-44" style="edgeStyle=orthogonalEdgeStyle;rounded=0;orthogonalLoop=1;jettySize=auto;html=1;entryX=1;entryY=0.5;entryDx=0;entryDy=0;" edge="1" parent="1" source="ti19_e32oSws1piyhhR4-41" target="ti19_e32oSws1piyhhR4-39">
          <mxGeometry relative="1" as="geometry">
            <Array as="points">
              <mxPoint x="530" y="813" />
              <mxPoint x="530" y="800" />
            </Array>
          </mxGeometry>
        </mxCell>
        <mxCell id="ti19_e32oSws1piyhhR4-45" value="&lt;span style=&quot;color: rgb(0, 0, 0); font-family: Helvetica; font-size: 11px; font-style: normal; font-variant-ligatures: normal; font-variant-caps: normal; font-weight: 400; letter-spacing: normal; orphans: 2; text-align: center; text-indent: 0px; text-transform: none; widows: 2; word-spacing: 0px; -webkit-text-stroke-width: 0px; background-color: rgb(251, 251, 251); text-decoration-thickness: initial; text-decoration-style: initial; text-decoration-color: initial; float: none; display: inline !important;&quot;&gt;multiply vector&lt;/span&gt;" style="text;whiteSpace=wrap;html=1;" vertex="1" parent="1">
          <mxGeometry x="325" y="770" width="90" height="40" as="geometry" />
        </mxCell>
        <mxCell id="ti19_e32oSws1piyhhR4-46" value="&lt;span style=&quot;color: rgb(0, 0, 0); font-family: Helvetica; font-size: 11px; font-style: normal; font-variant-ligatures: normal; font-variant-caps: normal; font-weight: 400; letter-spacing: normal; orphans: 2; text-align: center; text-indent: 0px; text-transform: none; widows: 2; word-spacing: 0px; -webkit-text-stroke-width: 0px; background-color: rgb(251, 251, 251); text-decoration-thickness: initial; text-decoration-style: initial; text-decoration-color: initial; float: none; display: inline !important;&quot;&gt;multiply vector&lt;/span&gt;" style="text;whiteSpace=wrap;html=1;" vertex="1" parent="1">
          <mxGeometry x="450" y="770" width="90" height="40" as="geometry" />
        </mxCell>
      </root>
    </mxGraphModel>
  </diagram>
</mxfile>
